<svg width="200" height="200" viewBox="0 0 200 200" fill="none" xmlns="http://www.w3.org/2000/svg">
    <!-- Background -->
    <rect width="200" height="200" fill="#2563EB" />

    <!-- House Icon (scaled and centered) -->
    <g transform="translate(25, 25) scale(6.25)">
        <path stroke-linecap="round" stroke-linejoin="round" stroke-width="2"
            stroke="#FFFFFF"
            d="M3 12l2-2m0 0l7-7 7 7M5 10v10a1 1 0 001 1h3m10-11l2 2m-2-2v10a1 1 0 01-1 1h-3m-6 0a1 1 0 001-1v-4a1 1 0 011-1h2a1 1 0 011 1v4a1 1 0 001 1m-6 0h6"></path>
    </g>
</svg>