<svg version="1.1" id="Layer_1" xmlns="http://www.w3.org/2000/svg" xmlns:xlink="http://www.w3.org/1999/xlink" x="0px" y="0px"
	 width="100%" viewBox="0 0 134 134" enable-background="new 0 0 134 134" xml:space="preserve">
<path fill="#010101" opacity="1.000000" stroke="none" 
	d="
M79.000000,135.000000 
	C52.690781,135.000000 26.881563,135.000000 1.036172,135.000000 
	C1.036172,90.399170 1.036172,45.798298 1.036172,1.098714 
	C45.558968,1.098714 90.118233,1.098714 134.838745,1.098714 
	C134.838745,45.666199 134.838745,90.333046 134.838745,135.000000 
	C116.465370,135.000000 97.982689,135.000000 79.000000,135.000000 
M124.974098,97.347527 
	C130.736496,83.521202 129.529434,70.490189 120.828514,58.133869 
	C118.689705,55.096516 117.257156,51.561844 115.672340,48.580177 
	C115.574776,48.710037 114.605682,49.999908 114.266342,50.451576 
	C107.411560,47.668407 100.967972,45.052189 94.324196,42.354691 
	C99.835358,34.087315 105.575157,25.476961 111.791977,16.151007 
	C103.738838,16.151007 96.782516,16.059166 89.833092,16.236883 
	C88.602959,16.268343 86.912102,17.105009 86.260254,18.107233 
	C76.383202,33.293446 66.305283,48.366516 57.003048,63.902359 
	C51.640236,72.858902 51.304787,82.990135 54.657280,92.876030 
	C59.790497,108.012970 70.599518,117.029396 86.378357,118.728569 
	C103.495972,120.571930 116.308624,113.086182 124.974098,97.347527 
M19.791389,16.702116 
	C15.533373,23.082355 11.275355,29.462595 6.472785,36.658794 
	C12.030638,36.658794 16.430897,36.658794 21.290663,36.658794 
	C21.290663,63.088371 21.290663,89.101784 21.290663,115.176422 
	C28.826546,115.176422 35.871220,115.176422 42.777908,115.176422 
	C42.777908,82.004982 42.777908,49.178448 42.777908,16.224205 
	C35.076817,16.224205 27.773731,16.224205 19.791389,16.702116 
z"/>
<path fill="#F8F8F8" opacity="1.000000" stroke="none" 
	d="
M124.823700,97.693871 
	C116.308624,113.086182 103.495972,120.571930 86.378357,118.728569 
	C70.599518,117.029396 59.790497,108.012970 54.657280,92.876030 
	C51.304787,82.990135 51.640236,72.858902 57.003048,63.902359 
	C66.305283,48.366516 76.383202,33.293446 86.260254,18.107233 
	C86.912102,17.105009 88.602959,16.268343 89.833092,16.236883 
	C96.782516,16.059166 103.738838,16.151007 111.791977,16.151007 
	C105.575157,25.476961 99.835358,34.087315 94.324196,42.354691 
	C100.967972,45.052189 107.411560,47.668407 114.266342,50.451576 
	C114.605682,49.999908 115.574776,48.710037 115.672340,48.580177 
	C117.257156,51.561844 118.689705,55.096516 120.828514,58.133869 
	C129.529434,70.490189 130.736496,83.521202 124.823700,97.693871 
M120.570564,84.192451 
	C115.519493,75.545410 109.748802,67.309662 106.684105,58.500942 
	C99.850044,60.114990 93.411903,60.560001 88.055367,63.199780 
	C82.578278,65.898972 78.161911,70.750542 73.569107,74.429306 
	C77.203949,64.454208 86.658707,57.322948 97.790520,57.049049 
	C101.577927,56.955860 104.081314,55.840485 105.563232,52.385117 
	C89.837662,47.092129 70.335022,59.315502 66.277542,76.562340 
	C64.138626,85.654099 67.407768,94.236290 73.499748,97.275337 
	C73.986908,91.445358 74.491943,85.401558 74.996971,79.357765 
	C75.457382,79.403610 75.917793,79.449448 76.378204,79.495293 
	C77.442818,99.001259 88.887703,109.381172 104.782112,104.102119 
	C98.030151,98.068047 100.965019,88.029938 94.268791,81.875420 
	C92.914658,80.630829 93.266365,77.530251 92.901855,75.647934 
	C95.502785,78.259666 97.757538,80.996147 100.482010,83.134041 
	C103.543907,85.536713 106.978989,87.486038 110.353828,89.457817 
	C111.920601,90.373222 114.165161,91.874031 115.339035,91.361359 
	C117.967003,90.213676 121.734436,89.292061 120.570564,84.192451 
M112.186661,50.936726 
	C111.987541,51.693382 111.788422,52.450039 111.589310,53.206696 
	C112.008522,53.272297 112.427734,53.337898 112.846947,53.403500 
	C112.900932,52.485146 112.954918,51.566788 112.186661,50.936726 
z"/>
<path fill="#FAFAFA" opacity="1.000000" stroke="none" 
	d="
M20.131020,16.463161 
	C27.773731,16.224205 35.076817,16.224205 42.777908,16.224205 
	C42.777908,49.178448 42.777908,82.004982 42.777908,115.176422 
	C35.871220,115.176422 28.826546,115.176422 21.290663,115.176422 
	C21.290663,89.101784 21.290663,63.088371 21.290663,36.658794 
	C16.430897,36.658794 12.030638,36.658794 6.472785,36.658794 
	C11.275355,29.462595 15.533373,23.082355 20.131020,16.463161 
z"/>
<path fill="#060606" opacity="1.000000" stroke="none" 
	d="
M120.727226,84.538826 
	C121.734436,89.292061 117.967003,90.213676 115.339035,91.361359 
	C114.165161,91.874031 111.920601,90.373222 110.353828,89.457817 
	C106.978989,87.486038 103.543907,85.536713 100.482010,83.134041 
	C97.757538,80.996147 95.502785,78.259666 92.901855,75.647934 
	C93.266365,77.530251 92.914658,80.630829 94.268791,81.875420 
	C100.965019,88.029938 98.030151,98.068047 104.782112,104.102119 
	C88.887703,109.381172 77.442818,99.001259 76.378204,79.495293 
	C75.917793,79.449448 75.457382,79.403610 74.996971,79.357765 
	C74.491943,85.401558 73.986908,91.445358 73.499748,97.275337 
	C67.407768,94.236290 64.138626,85.654099 66.277542,76.562340 
	C70.335022,59.315502 89.837662,47.092129 105.563232,52.385117 
	C104.081314,55.840485 101.577927,56.955860 97.790520,57.049049 
	C86.658707,57.322948 77.203949,64.454208 73.569107,74.429306 
	C78.161911,70.750542 82.578278,65.898972 88.055367,63.199780 
	C93.411903,60.560001 99.850044,60.114990 106.684105,58.500942 
	C109.748802,67.309662 115.519493,75.545410 120.727226,84.538826 
z"/>
<path fill="#010101" opacity="1.000000" stroke="none" 
	d="
M112.597778,50.792580 
	C112.954918,51.566788 112.900932,52.485146 112.846947,53.403496 
	C112.427734,53.337898 112.008522,53.272297 111.589310,53.206696 
	C111.788422,52.450039 111.987541,51.693382 112.597778,50.792580 
z"/>
</svg>